<?xml version="1.0" encoding="UTF-8" standalone="no"?>
<!-- Created with Inkscape (http://www.inkscape.org/) -->

<svg
   version="1.1"
   id="svg650"
   width="2021.5802"
   height="1875.3385"
   viewBox="0 0 2021.5801 1875.3386"
   sodipodi:docname="board.svg"
   inkscape:version="1.2.2 (732a01da63, 2022-12-09)"
   xmlns:inkscape="http://www.inkscape.org/namespaces/inkscape"
   xmlns:sodipodi="http://sodipodi.sourceforge.net/DTD/sodipodi-0.dtd"
   xmlns="http://www.w3.org/2000/svg"
   xmlns:svg="http://www.w3.org/2000/svg">
  <defs
     id="defs654">
    <clipPath
       clipPathUnits="userSpaceOnUse"
       id="clipPath814">
      <rect
         style="opacity:0.73;fill:#000000;stroke-width:7.5"
         id="rect816"
         width="15226.371"
         height="13548.89"
         x="9064.8516"
         y="-22452.443"
         rx="12.796898"
         ry="336.9538"
         transform="scale(1,-1)" />
    </clipPath>
    <clipPath
       clipPathUnits="userSpaceOnUse"
       id="clipPath820">
      <rect
         style="opacity:0.73;fill:#000000;stroke-width:7.5"
         id="rect822"
         width="15191.953"
         height="13458.337"
         x="9110.4727"
         y="-22384.012"
         rx="12.796898"
         ry="336.9538"
         transform="scale(1,-1)" />
    </clipPath>
    <clipPath
       clipPathUnits="userSpaceOnUse"
       id="clipPath886">
      <rect
         style="opacity:0.73;fill:#000000;stroke-width:6.67884"
         id="rect888"
         width="15129.594"
         height="11102.562"
         x="9142.7324"
         y="-22332.848"
         rx="12.87891"
         ry="295.14328"
         transform="scale(1,-1)" />
    </clipPath>
    <clipPath
       clipPathUnits="userSpaceOnUse"
       id="clipPath894">
      <rect
         style="opacity:0.73;fill:#000000;stroke-width:6.67884"
         id="rect896"
         width="15161.852"
         height="11153.727"
         x="9110.4736"
         y="-22358.43"
         rx="12.87891"
         ry="295.14328"
         transform="scale(1,-1)" />
    </clipPath>
  </defs>
  <sodipodi:namedview
     id="namedview652"
     pagecolor="#505050"
     bordercolor="#eeeeee"
     borderopacity="1"
     inkscape:showpageshadow="0"
     inkscape:pageopacity="0"
     inkscape:pagecheckerboard="0"
     inkscape:deskcolor="#505050"
     showgrid="false"
     showguides="false"
     inkscape:zoom="0.23249139"
     inkscape:cx="2533.4272"
     inkscape:cy="1195.7432"
     inkscape:window-width="1920"
     inkscape:window-height="1017"
     inkscape:window-x="-8"
     inkscape:window-y="-8"
     inkscape:window-maximized="1"
     inkscape:current-layer="g658">
    <inkscape:page
       x="0"
       y="0"
       id="page656"
       width="2021.5801"
       height="1875.3386" />
  </sodipodi:namedview>
  <g
     id="g658"
     inkscape:groupmode="layer"
     inkscape:label="Page 1"
     transform="matrix(1.3333333,0,0,-1.3333333,-1214.7298,3448.6142)">
    <g
       id="g660"
       transform="matrix(0.1,0,0,0.14658962,0,-691.05291)"
       clip-path="url(#clipPath894)">
      <path
         d="M 39200,1 H 0 V 27001 H 39200 V 1"
         style="fill:#fbf5ef;fill-opacity:1;fill-rule:nonzero;stroke:none"
         id="path662" />
      <path
         d="M 2.30078,24510 39202.2,24592.9"
         style="fill:none;stroke:#efcdaa;stroke-width:100;stroke-linecap:butt;stroke-linejoin:miter;stroke-miterlimit:10;stroke-dasharray:none;stroke-opacity:1"
         id="path664" />
      <path
         d="M 2.30078,22290 39202.2,22372.9"
         style="fill:none;stroke:#efcdaa;stroke-width:100;stroke-linecap:butt;stroke-linejoin:miter;stroke-miterlimit:10;stroke-dasharray:none;stroke-opacity:1"
         id="path666" />
      <path
         d="M 2.30078,20070 39202.2,20152.9"
         style="fill:none;stroke:#efcdaa;stroke-width:100;stroke-linecap:butt;stroke-linejoin:miter;stroke-miterlimit:10;stroke-dasharray:none;stroke-opacity:1"
         id="path668" />
      <path
         d="M 2.30078,17850 39202.2,17932.9"
         style="fill:none;stroke:#efcdaa;stroke-width:100;stroke-linecap:butt;stroke-linejoin:miter;stroke-miterlimit:10;stroke-dasharray:none;stroke-opacity:1"
         id="path670" />
      <path
         d="M 2.30078,15630 39202.2,15712.9"
         style="fill:none;stroke:#efcdaa;stroke-width:100;stroke-linecap:butt;stroke-linejoin:miter;stroke-miterlimit:10;stroke-dasharray:none;stroke-opacity:1"
         id="path672" />
      <path
         d="M 2.30078,13410 39202.2,13492.9"
         style="fill:none;stroke:#efcdaa;stroke-width:100;stroke-linecap:butt;stroke-linejoin:miter;stroke-miterlimit:10;stroke-dasharray:none;stroke-opacity:1"
         id="path674" />
      <path
         d="M 2.30078,11190 39202.2,11272.9"
         style="fill:none;stroke:#efcdaa;stroke-width:100;stroke-linecap:butt;stroke-linejoin:miter;stroke-miterlimit:10;stroke-dasharray:none;stroke-opacity:1"
         id="path676" />
      <path
         d="M 2.30078,8970 39202.2,9052.9"
         style="fill:none;stroke:#efcdaa;stroke-width:100;stroke-linecap:butt;stroke-linejoin:miter;stroke-miterlimit:10;stroke-dasharray:none;stroke-opacity:1"
         id="path678" />
      <path
         d="M 2.30078,6750 39202.2,6832.9"
         style="fill:none;stroke:#efcdaa;stroke-width:100;stroke-linecap:butt;stroke-linejoin:miter;stroke-miterlimit:10;stroke-dasharray:none;stroke-opacity:1"
         id="path680" />
      <path
         d="M 2.30078,4530 39202.2,4612.9"
         style="fill:none;stroke:#efcdaa;stroke-width:100;stroke-linecap:butt;stroke-linejoin:miter;stroke-miterlimit:10;stroke-dasharray:none;stroke-opacity:1"
         id="path682" />
      <path
         d="M 2.30078,2310 39202.2,2392.9"
         style="fill:none;stroke:#efcdaa;stroke-width:100;stroke-linecap:butt;stroke-linejoin:miter;stroke-miterlimit:10;stroke-dasharray:none;stroke-opacity:1"
         id="path684" />
      <path
         d="M 3127.32,0 V 27000"
         style="fill:none;stroke:#efcdaa;stroke-width:100;stroke-linecap:butt;stroke-linejoin:miter;stroke-miterlimit:10;stroke-dasharray:none;stroke-opacity:1"
         id="path686" />
      <path
         d="M 6137.32,0 V 27000"
         style="fill:none;stroke:#efcdaa;stroke-width:100;stroke-linecap:butt;stroke-linejoin:miter;stroke-miterlimit:10;stroke-dasharray:none;stroke-opacity:1"
         id="path688" />
      <path
         d="M 9147.32,0 V 27000"
         style="fill:none;stroke:#efcdaa;stroke-width:100;stroke-linecap:butt;stroke-linejoin:miter;stroke-miterlimit:10;stroke-dasharray:none;stroke-opacity:1"
         id="path690" />
      <path
         d="M 12157.3,0 V 27000"
         style="fill:none;stroke:#efcdaa;stroke-width:100;stroke-linecap:butt;stroke-linejoin:miter;stroke-miterlimit:10;stroke-dasharray:none;stroke-opacity:1"
         id="path692" />
      <path
         d="M 15167.3,0 V 27000"
         style="fill:none;stroke:#efcdaa;stroke-width:100;stroke-linecap:butt;stroke-linejoin:miter;stroke-miterlimit:10;stroke-dasharray:none;stroke-opacity:1"
         id="path694" />
      <path
         d="M 18177.3,0 V 27000"
         style="fill:none;stroke:#efcdaa;stroke-width:100;stroke-linecap:butt;stroke-linejoin:miter;stroke-miterlimit:10;stroke-dasharray:none;stroke-opacity:1"
         id="path696" />
      <path
         d="M 21187.3,0 V 27000"
         style="fill:none;stroke:#efcdaa;stroke-width:100;stroke-linecap:butt;stroke-linejoin:miter;stroke-miterlimit:10;stroke-dasharray:none;stroke-opacity:1"
         id="path698" />
      <path
         d="M 24197.3,0 V 27000"
         style="fill:none;stroke:#efcdaa;stroke-width:100;stroke-linecap:butt;stroke-linejoin:miter;stroke-miterlimit:10;stroke-dasharray:none;stroke-opacity:1"
         id="path700" />
      <path
         d="M 27207.3,0 V 27000"
         style="fill:none;stroke:#efcdaa;stroke-width:100;stroke-linecap:butt;stroke-linejoin:miter;stroke-miterlimit:10;stroke-dasharray:none;stroke-opacity:1"
         id="path702" />
      <path
         d="M 30217.3,0 V 27000"
         style="fill:none;stroke:#efcdaa;stroke-width:100;stroke-linecap:butt;stroke-linejoin:miter;stroke-miterlimit:10;stroke-dasharray:none;stroke-opacity:1"
         id="path704" />
      <path
         d="M 33227.3,0 V 27000"
         style="fill:none;stroke:#efcdaa;stroke-width:100;stroke-linecap:butt;stroke-linejoin:miter;stroke-miterlimit:10;stroke-dasharray:none;stroke-opacity:1"
         id="path706" />
      <path
         d="M 36237.3,0 V 27000"
         style="fill:none;stroke:#efcdaa;stroke-width:100;stroke-linecap:butt;stroke-linejoin:miter;stroke-miterlimit:10;stroke-dasharray:none;stroke-opacity:1"
         id="path708" />
      <path
         d="m 1833.84,26531.6 c -31.04,62.9 -70.11,121.6 -116.12,174.5 l 67.92,59 c 51.08,-58.7 94.45,-123.9 128.91,-193.7 l -80.71,-39.8"
         style="fill:#fab687;fill-opacity:1;fill-rule:nonzero;stroke:none"
         id="path710" />
      <path
         d="m 2135.49,26624.3 c -2.42,70.1 -13.88,139.6 -34.05,206.8 l 86.2,25.9 c 22.39,-74.6 35.11,-151.8 37.8,-229.6 l -89.95,-3.1"
         style="fill:#fab687;fill-opacity:1;fill-rule:nonzero;stroke:none"
         id="path712" />
      <path
         d="m 2473.7,26612.7 c 11.78,69.1 14.62,139.6 8.43,209.4 l 89.65,8 c 6.87,-77.5 3.72,-155.8 -9.36,-232.5 l -88.72,15.1"
         style="fill:#fab687;fill-opacity:1;fill-rule:nonzero;stroke:none"
         id="path714" />
      <path
         d="m 2882.56,26549.2 c 19.44,67.4 30.14,137.1 31.79,207.2 l 89.98,-2.1 c -1.84,-77.9 -13.72,-155.3 -35.29,-230.1 l -86.48,25"
         style="fill:#fab687;fill-opacity:1;fill-rule:nonzero;stroke:none"
         id="path716" />
      <path
         d="m 27403.3,1 c -0.5,20.8008 -46.2,2090.5 -46.2,3161.2 0,2384.4 554,4613.8 1559.9,6277.5 508.8,841.5 1111.2,1505.1 1790.6,1972.2 355.2,244.3 730.3,432.5 1114.9,559.2 399.4,131.7 812.8,198.4 1228.8,198.4 416.7,0 832.4,-68.4 1235.6,-203.2 386.8,-129.4 765.4,-321.1 1125.2,-569.8 687.9,-475.5 1301.1,-1148.7 1822.5,-2000.8 508.7,-831.4 907.1,-1795.6 1184,-2865.6 284.1,-1097.7 428.2,-2262.3 428.2,-3461.3 0,-1063.7 4.5,-3033.6984 4.6,-3053.4016 l -1169.5,-2.7968 c -0.1,19.7968 -4.6,1991.1984 -4.6,3056.1984 0,2168.5 -511.5,4198.6 -1440.3,5716.5 -873.8,1428.2 -2005.2,2214.7 -3185.7,2214.7 -1176.4,0 -2289.2,-769 -3133.5,-2165.3 -897.1,-1483.8 -1391.2,-3498.4 -1391.2,-5672.5 0,-1057.7 45.5,-3114.5984 45.9,-3135.2 L 27403.3,1"
         style="fill:#b9c294;fill-opacity:1;fill-rule:nonzero;stroke:none"
         id="path718" />
      <path
         d="m 28984.5,1 c -1.3,71.3984 -32.2,1758.8 -32.2,2660.5 0,2033.5 392.8,3937.3 1105.9,5360.8 364.4,727.2 797.1,1301.8 1286.2,1707.7 257.9,214.1 530.8,379.1 810.8,490.5 291.9,116.1 594.1,175 898.2,175 304.8,0 608.8,-60.3 903.5,-179.3 281.5,-113.6 556.6,-281.6 817.7,-499.4 494.7,-412.8 934.8,-995.1 1307.8,-1730.8 361.3,-712.6 643.9,-1537.9 840.2,-2452.9 200.7,-936 302.4,-1928.5 302.4,-2950.1 0,-893.8 3.2,-2549.3008 3.2,-2565.8984 L 36142.7,14 c -0.1,16.6992 -3.2,1673.7 -3.2,2569 0,1792.8 -349.2,3468.8 -983.1,4719.2 -583,1149.9 -1329.9,1783.1 -2103,1783.1 -770,0 -1503.8,-618.2 -2066.2,-1740.9 -612.2,-1221.9 -949.3,-2885 -949.3,-4682.9 0,-887.1 31.6,-2614.1016 31.9,-2631.3984 L 28984.5,1"
         style="fill:#fab687;fill-opacity:1;fill-rule:nonzero;stroke:none"
         id="path720" />
      <path
         d="m 30486,1 c -0.2,14.3008 -19,1438.2 -19,2174.4 0,1629.9 227.3,3155.7 640.1,4296.3 214.5,592.7 473.1,1065.3 768.4,1404.5 457.2,525.3 924.2,635.6 1235.4,635.6 238.7,0 472.7,-63.1 695.4,-187.5 192.6,-107.6 376.8,-262.1 547.5,-459.2 298.5,-344.7 561.3,-823.7 781,-1423.6 426.8,-1165.1 661.8,-2703 661.8,-4330.5 0,-732.3 1.9,-2088.5 1.9,-2102.09766 l -1077,-1.5039 C 34721.5,21 34719.6,1378 34719.6,2111 c 0,1504.3 -211.7,2910.7 -596.1,3960.1 -345,942 -757.2,1363.7 -1012.6,1363.7 -158.5,0 -317.6,-144.5 -423.1,-265.7 -204.8,-235.3 -401.2,-603.2 -568,-1063.9 -371.3,-1026.1 -575.8,-2421.7 -575.8,-3929.8 0,-729.1 18.7,-2145.9 18.9,-2160.0992 L 30486,1"
         style="fill:#e5a97e;fill-opacity:1;fill-rule:nonzero;stroke:none"
         id="path722" />
      <path
         d="m 31832.9,1 c 0,10.5 -7.5,1059.3 -7.5,1601 0,1184.6 88.7,2291.9 249.7,3118 83.2,426.7 183.9,767.9 299.4,1014.2 73,155.7 152.7,276.6 243.4,369.3 178.1,182.1 365.2,220.3 490.8,220.3 126.5,0 314.8,-39 493.8,-224.6 90.3,-93.8 169.9,-215.8 243.3,-373.2 116.8,-250.4 219.3,-596.5 304.6,-1028.7 166.5,-844 258.2,-1960.1 258.2,-3142.7 0,-540 0.7,-1539.9984 0.7,-1550.1 L 33515,3.90234 c 0,9.99996 -0.8,1010.29766 -0.8,1550.69766 0,983.4 -67.7,1938.1 -190.6,2688 -72.7,443.2 -150.1,733.5 -214.8,920.6 -62.5,-183.6 -136.7,-466.7 -205.9,-896.7 -118.1,-734.7 -183.2,-1681 -183.2,-2664.5 0,-538.5 7.5,-1584.1016 7.5,-1594.60156 L 31832.9,1"
         style="fill:#e1bc82;fill-opacity:1;fill-rule:nonzero;stroke:none"
         id="path724" />
      <path
         d="m 5028.09,24816.4 c -0.08,3.7 -8.14,368.5 -8.14,557.2 0,420.2 97.63,813.1 274.91,1106.3 89.67,148.3 195.84,265.3 315.56,347.6 62.61,43 128.72,76.2 196.5,98.5 70.39,23.2 143.25,35 216.56,35 73.44,0 146.71,-12 217.76,-35.8 68.17,-22.8 134.89,-56.6 198.3,-100.4 121.25,-83.8 229.32,-202.5 321.2,-352.7 89.66,-146.5 159.86,-316.4 208.67,-505 50.07,-193.4 75.45,-398.7 75.45,-610 0,-187.4 0.81,-534.6 0.81,-538.1 l -206.11,-0.5 c 0,3.5 -0.81,350.9 -0.81,538.6 0,382.2 -90.14,740 -253.82,1007.5 -154.01,251.7 -353.4,390.3 -561.45,390.3 -207.33,0 -403.45,-135.5 -552.24,-381.6 -158.11,-261.5 -245.18,-616.6 -245.18,-999.7 0,-186.4 8.01,-548.9 8.09,-552.6 l -206.06,-4.6"
         style="fill:#b9c294;fill-opacity:1;fill-rule:nonzero;stroke:none"
         id="path726" />
      <path
         d="m 5306.75,24816.4 c -0.23,12.6 -5.67,310 -5.67,468.9 0,358.4 69.22,693.9 194.9,944.8 64.21,128.2 140.48,229.4 226.67,301 45.47,37.7 93.55,66.8 142.9,86.4 51.44,20.5 104.7,30.9 158.3,30.9 53.73,0 107.3,-10.7 159.23,-31.6 49.61,-20.1 98.1,-49.7 144.11,-88.1 87.19,-72.7 164.74,-175.3 230.48,-305 63.67,-125.6 113.49,-271 148.07,-432.3 35.38,-164.9 53.31,-339.9 53.31,-519.9 0,-157.5 0.56,-449.3 0.57,-452.2 l -191.32,-0.6 c -0.01,3 -0.57,295 -0.57,452.8 0,315.9 -61.53,611.3 -173.25,831.7 -102.75,202.6 -234.38,314.3 -370.63,314.3 -135.7,0 -265.02,-109 -364.14,-306.9 -107.89,-215.3 -167.31,-508.4 -167.31,-825.3 0,-156.3 5.57,-460.7 5.63,-463.7 l -191.28,-5.2"
         style="fill:#fab687;fill-opacity:1;fill-rule:nonzero;stroke:none"
         id="path728" />
      <path
         d="m 5571.37,24816.4 c -0.03,2.6 -3.35,253.5 -3.35,383.3 0,287.2 40.07,556.1 112.82,757.1 37.81,104.5 83.37,187.8 135.42,247.6 80.58,92.5 162.88,112 217.72,112 42.08,0 83.31,-11.1 122.56,-33.1 33.95,-18.9 66.41,-46.2 96.48,-80.9 52.62,-60.8 98.94,-145.2 137.66,-250.9 75.21,-205.3 116.62,-476.4 116.62,-763.2 0,-129 0.33,-368.1 0.34,-370.5 l -189.81,-0.2 c 0,2.4 -0.33,241.5 -0.33,370.7 0,265.1 -37.31,513 -105.05,697.9 -60.81,166.1 -133.45,240.4 -178.47,240.4 -27.93,0 -55.96,-25.5 -74.56,-46.9 -36.1,-41.4 -70.71,-106.3 -100.1,-187.5 -65.45,-180.8 -101.49,-426.8 -101.49,-692.5 0,-128.5 3.3,-378.2 3.33,-380.7 l -189.79,-2.6"
         style="fill:#e5a97e;fill-opacity:1;fill-rule:nonzero;stroke:none"
         id="path730" />
      <path
         d="m 5808.76,24816.4 c -0.01,1.9 -1.33,186.7 -1.33,282.2 0,208.8 15.63,403.9 44.01,549.5 14.66,75.2 32.41,135.3 52.76,178.8 12.87,27.4 26.91,48.7 42.9,65 31.39,32.1 64.36,38.9 86.5,38.9 22.28,0 55.47,-6.9 87.01,-39.6 15.93,-16.5 29.96,-38.1 42.9,-65.8 20.58,-44.1 38.64,-105.1 53.67,-181.3 29.34,-148.7 45.5,-345.4 45.5,-553.9 0,-95.1 0.13,-271.4 0.13,-273.1 l -157.61,-0.2 c 0,1.8 -0.13,178.1 -0.13,273.3 0,173.4 -11.93,341.6 -33.6,473.8 -12.81,78.1 -26.45,129.3 -37.86,162.2 -11.02,-32.3 -24.09,-82.2 -36.28,-158 -20.82,-129.5 -32.29,-296.3 -32.29,-469.6 0,-94.9 1.32,-279.2 1.33,-281 l -157.61,-1.2"
         style="fill:#e1bc82;fill-opacity:1;fill-rule:nonzero;stroke:none"
         id="path732" />
      <path
         d="m 35858.8,13224.9 c -82.5,0 -149.5,66.6 -150,149.1 -3.2,549.8 -81.8,1109.3 -157.8,1650.3 -73,519.8 -148.5,1057.4 -159.5,1594.7 -21.7,1057.7 203.4,2126.5 421.1,3160.2 330.7,1569.8 642.9,3052.6 161.9,4490.5 -174.4,521.5 -427.8,866.5 -753.1,1025.7 -283.5,138.6 -633.7,138.5 -943.2,138.1 l -8229.4,-5.7 c -1226.4,-0.9 -2494.5,-1.7 -3731.8,-130.1 -526.8,-54.7 -1061.1,-133.9 -1577.8,-210.5 -482,-71.4 -980.3,-145.3 -1474.2,-199.6 -1948.8,-214.4 -3933.1,-137.7 -5852.2,-63.7 -1440.3,55.7 -1776.8,75 -2102.1,93.8 -324,18.6 -658.9,37.9 -2096.49,93.4 -82.78,3.2 -147.3,72.9 -144.1,155.7 3.2,82.8 73.11,147.3 155.68,144.1 1440.41,-55.6 1776.81,-75 2102.11,-93.7 324,-18.7 659,-38 2096.5,-93.5 1908.1,-73.7 3881.1,-149.8 5807.8,62.1 488.2,53.7 983.8,127.1 1463,198.1 519.9,77.1 1057.6,156.8 1590.8,212.2 1252.6,129.9 2528.6,130.8 3762.6,131.7 l 8229.4,5.7 c 342,0.3 729.2,0.6 1075.2,-168.7 400.2,-195.7 704.9,-599.4 905.8,-1200 228.2,-682.1 305.6,-1439.2 236.6,-2314.6 -60.9,-773 -227.9,-1566 -389.4,-2332.8 -214.2,-1017.2 -435.7,-2068.9 -414.8,-3092.3 10.6,-519.4 84.9,-1047.9 156.7,-1559 77.4,-550.9 157.4,-1120.4 160.7,-1690.3 0.5,-82.9 -66.3,-150.4 -149.1,-150.9 -0.3,0 -0.6,0 -0.9,0"
         style="fill:#e49f64;fill-opacity:1;fill-rule:nonzero;stroke:none"
         id="path734" />
      <path
         d="m 17919.2,1976.2 c -671.2,0 -1338.8,9.4 -1999.2,18.6 L 5334.91,2143.6 c -534.83,7.5 -1141,16 -1678.99,258.5 -519.43,234.2 -969.98,682.4 -1339.16,1332.3 -281.33,495.2 -489.48,1047.4 -618.67,1641.2 -116.42,535.2 -172.67,1123.2 -167.2,1747.8 8.77,1001.8 170.66,2122.4 509.48,3526.6 62.39,258.6 128.17,522.7 191.77,778 495.83,1990.4 1008.53,4048.5 571.6,6027.5 -96.79,438.4 -242.22,875.7 -382.85,1298.6 -137.49,413.4 -279.66,841 -379.3,1275.9 -40.54,177 -79.85,335.4 -114.52,475.2 -187.41,755.5 -281.48,1134.7 -11.48,2096.4 22.39,79.7 105.2,126.2 184.96,103.8 79.76,-22.4 126.26,-105.2 103.87,-185 -248.57,-885.2 -171.75,-1194.8 13.82,-1942.9 34.98,-141.1 74.64,-300.9 115.77,-480.5 96.43,-420.9 236.29,-841.5 371.55,-1248.2 143.05,-430.2 290.98,-875 391.12,-1328.6 452.13,-2047.9 -69.23,-4140.7 -573.43,-6164.7 -63.48,-254.8 -129.12,-518.3 -191.25,-775.8 -493.97,-2047.2 -912.46,-4658.5 245.61,-6697.1 337.1,-593.5 741.37,-999.5 1201.59,-1207 481.2,-216.9 1054.3,-225 1559.93,-232.1 L 15924.2,2294.8 c 1995.6,-28 4059.1,-57 6071.9,176.2 1385.9,160.7 2765.5,447.4 4100.6,852.4 79.2,24.1 163,-20.7 187,-100 24.1,-79.3 -20.7,-163 -100,-187.1 -1352.1,-410.1 -2749.4,-700.6 -4153.1,-863.3 -1362.8,-157.9 -2744.4,-196.8 -4111.4,-196.8"
         style="fill:#e49f64;fill-opacity:1;fill-rule:nonzero;stroke:none"
         id="path736" />
      <path
         d="m 949.086,23222 c -0.121,5.3 -11.949,540.9 -11.949,818 0,617.1 143.363,1194 403.673,1624.6 131.67,217.7 287.57,389.5 463.37,510.4 91.93,63.2 189,111.9 288.53,144.7 103.36,34 210.35,51.3 318,51.3 107.84,0 215.42,-17.7 319.76,-52.6 100.1,-33.5 198.06,-83.1 291.17,-147.4 178.04,-123.1 336.73,-297.3 471.65,-517.8 131.65,-215.2 234.74,-464.7 306.41,-741.6 73.52,-284.1 110.79,-585.4 110.79,-895.7 0,-275.3 1.18,-785.1 1.19,-790.2 l -302.65,-0.7 c -0.01,5.1 -1.19,515.3 -1.19,790.9 0,561.1 -132.36,1086.5 -372.71,1479.3 -226.14,369.6 -518.93,573.2 -824.42,573.2 -304.44,0 -592.42,-199.1 -810.9,-560.4 -232.17,-384 -360.02,-905.3 -360.02,-1468 0,-273.7 11.75,-806 11.87,-811.3 l -302.574,-6.7"
         style="fill:#82b2bc;fill-opacity:1;fill-rule:nonzero;stroke:none"
         id="path738" />
      <path
         d="m 1358.27,23222 c -0.34,18.4 -8.33,455.1 -8.33,688.5 0,526.2 101.64,1018.9 286.19,1387.3 94.29,188.1 206.28,336.8 332.84,441.9 66.77,55.4 137.37,98.1 209.84,126.9 75.53,30.1 153.73,45.3 232.44,45.3 78.89,0 157.56,-15.6 233.81,-46.4 72.85,-29.4 144.04,-72.9 211.6,-129.2 128.05,-106.8 241.92,-257.5 338.45,-447.9 93.49,-184.5 166.65,-398 217.42,-634.8 51.95,-242.2 78.28,-499.1 78.28,-763.5 0,-231.2 0.82,-659.7 0.83,-664 l -280.93,-0.8 c -0.01,4.3 -0.83,433.2 -0.83,664.8 0,464 -90.35,897.7 -254.41,1221.3 -150.87,297.6 -344.15,461.5 -544.22,461.5 -199.26,0 -389.15,-160 -534.71,-450.6 -158.41,-316.2 -245.66,-746.6 -245.66,-1211.8 0,-229.6 8.18,-676.5 8.26,-681 l -280.87,-7.5"
         style="fill:#c9e8d3;fill-opacity:1;fill-rule:nonzero;stroke:none"
         id="path740" />
      <path
         d="m 1746.84,23222 c -0.05,3.7 -4.92,372.1 -4.92,562.7 0,421.7 58.83,816.6 165.66,1111.8 55.52,153.4 122.41,275.7 198.84,363.5 118.33,135.9 239.18,164.4 319.71,164.4 61.78,0 122.33,-16.3 179.95,-48.5 49.85,-27.8 97.52,-67.8 141.69,-118.8 77.26,-89.2 145.27,-213.2 202.13,-368.4 110.43,-301.5 171.25,-699.5 171.25,-1120.7 0,-189.5 0.48,-540.5 0.49,-544 l -278.71,-0.4 c -0.01,3.5 -0.49,354.7 -0.49,544.4 -0.01,389.3 -54.79,753.2 -154.25,1024.8 -89.3,243.8 -195.96,352.9 -262.06,352.9 -41.02,0 -82.18,-37.4 -109.49,-68.7 -53,-60.9 -103.83,-156.1 -146.98,-275.4 -96.11,-265.5 -149.03,-626.7 -149.03,-1016.9 0,-188.7 4.84,-555.3 4.89,-559 l -278.68,-3.7"
         style="fill:#fab687;fill-opacity:1;fill-rule:nonzero;stroke:none"
         id="path742" />
      <path
         d="m 2095.41,23222 c -0.02,2.7 -1.95,274.1 -1.95,414.3 0,306.5 22.95,593.1 64.63,806.9 21.53,110.4 47.59,198.7 77.47,262.4 18.9,40.3 39.51,71.6 62.99,95.6 46.09,47.1 94.51,57 127.01,57 32.73,0 81.46,-10.1 127.78,-58.1 23.39,-24.3 43.99,-55.9 62.98,-96.6 30.22,-64.8 56.74,-154.3 78.81,-266.2 43.09,-218.4 66.82,-507.2 66.82,-813.3 0,-139.7 0.19,-398.5 0.19,-401.1 l -231.44,-0.2 c 0,2.6 -0.19,261.5 -0.19,401.3 0,254.5 -17.52,501.6 -49.34,695.6 -18.8,114.7 -38.83,189.9 -55.59,238.3 -16.18,-47.5 -35.38,-120.8 -53.27,-232.1 -30.57,-190.1 -47.41,-435 -47.41,-689.5 0,-139.4 1.93,-410 1.95,-412.7 l -231.44,-1.6"
         style="fill:#e1bc82;fill-opacity:1;fill-rule:nonzero;stroke:none"
         id="path744" />
      <path
         d="m 4342.94,22572 c -0.06,2.6 -5.8,262.6 -5.8,397.2 0,299.6 69.61,579.7 196,788.8 63.93,105.7 139.63,189.1 225,247.8 44.63,30.7 91.77,54.3 140.09,70.3 50.19,16.5 102.14,24.9 154.41,24.9 52.36,0 104.6,-8.6 155.26,-25.5 48.61,-16.3 96.17,-40.4 141.38,-71.6 86.45,-59.8 163.5,-144.4 229.02,-251.5 63.92,-104.4 113.98,-225.6 148.77,-360 35.7,-138 53.8,-284.3 53.8,-435 0,-133.6 0.57,-381.1 0.58,-383.6 l -146.95,-0.4 c -0.01,2.5 -0.58,250.2 -0.58,384 0,272.5 -64.27,527.6 -180.97,718.4 -109.81,179.4 -251.97,278.3 -400.31,278.3 -147.82,0 -287.65,-96.7 -393.74,-272.1 -112.73,-186.5 -174.81,-439.6 -174.81,-712.8 0,-132.9 5.71,-391.4 5.77,-394 l -146.92,-3.2"
         style="fill:#b9c294;fill-opacity:1;fill-rule:nonzero;stroke:none"
         id="path746" />
      <path
         d="m 4541.62,22572 c -0.16,8.9 -4.04,221 -4.04,334.3 0,255.5 49.35,494.7 138.96,673.6 45.78,91.4 100.16,163.6 161.61,214.6 32.42,26.9 66.7,47.6 101.89,61.6 36.67,14.6 74.65,22 112.86,22 38.31,0 76.51,-7.6 113.53,-22.5 35.37,-14.3 69.94,-35.4 102.75,-62.8 62.17,-51.9 117.46,-125 164.33,-217.5 45.4,-89.5 80.92,-193.2 105.57,-308.2 25.22,-117.6 38.01,-242.3 38.01,-370.7 0,-112.3 0.4,-320.3 0.41,-322.4 l -136.41,-0.4 c -0.01,2.1 -0.41,210.3 -0.41,322.8 0,225.3 -43.87,435.9 -123.52,593 -73.26,144.5 -167.11,224.1 -264.26,224.1 -96.75,0 -188.95,-77.7 -259.63,-218.8 -76.92,-153.5 -119.28,-362.5 -119.28,-588.4 0,-111.5 3.97,-328.5 4.01,-330.7 l -136.38,-3.6"
         style="fill:#fab687;fill-opacity:1;fill-rule:nonzero;stroke:none"
         id="path748" />
      <path
         d="m 4730.29,22572 c -0.02,1.8 -2.39,180.7 -2.39,273.2 0,204.8 28.57,396.5 80.44,539.8 26.96,74.5 59.44,133.9 96.55,176.5 57.46,66 116.13,79.9 155.24,79.9 30,0 59.39,-7.9 87.38,-23.6 24.2,-13.5 47.35,-32.9 68.79,-57.7 37.52,-43.3 70.54,-103.5 98.15,-178.9 53.62,-146.3 83.15,-339.6 83.15,-544.1 0,-92 0.24,-262.4 0.24,-264.2 l -135.33,-0.1 c -0.01,1.7 -0.24,172.2 -0.24,264.3 0,189 -26.6,365.7 -74.9,497.6 -43.36,118.4 -95.15,171.4 -127.24,171.4 -19.92,0 -39.91,-18.2 -53.16,-33.4 -25.74,-29.6 -50.42,-75.8 -71.37,-133.7 -46.67,-128.9 -72.37,-304.3 -72.37,-493.8 0,-91.6 2.36,-269.6 2.38,-271.4 l -135.32,-1.8"
         style="fill:#e5a97e;fill-opacity:1;fill-rule:nonzero;stroke:none"
         id="path750" />
      <path
         d="m 4899.55,22572 c -0.01,1.3 -0.95,133.1 -0.95,201.1 0,148.9 11.14,288 31.38,391.8 10.45,53.7 23.11,96.5 37.62,127.5 9.17,19.5 19.18,34.7 30.58,46.4 22.38,22.9 45.89,27.6 61.67,27.6 15.89,0 39.56,-4.8 62.05,-28.2 11.35,-11.8 21.35,-27.1 30.58,-46.9 14.67,-31.4 27.55,-74.9 38.26,-129.2 20.92,-106.1 32.45,-246.3 32.45,-394.9 0,-67.9 0.09,-193.5 0.09,-194.8 l -112.37,-0.1 c -0.01,1.3 -0.1,127 -0.1,194.9 0,123.6 -8.51,243.5 -23.96,337.7 -9.13,55.7 -18.85,92.2 -26.99,115.7 -7.85,-23 -17.18,-58.6 -25.86,-112.7 -14.85,-92.3 -23.02,-211.2 -23.02,-334.8 0,-67.6 0.93,-199 0.94,-200.3 l -112.37,-0.8"
         style="fill:#e1bc82;fill-opacity:1;fill-rule:nonzero;stroke:none"
         id="path752" />
      <path
         d="m 3987.87,23011 c 3.27,20 5.07,40.6 5.07,61.7 0,188.5 -136.95,341.4 -305.88,341.4 -37.46,0 -73.33,-7.6 -106.5,-21.3 -46.35,31.6 -100.8,49.8 -159.07,49.8 -57.55,0 -111.38,-17.8 -157.36,-48.7 -52.73,48.2 -120.11,77.1 -193.56,77.1 -71.68,0 -137.55,-27.6 -189.69,-73.7 -52.15,46.1 -118.01,73.7 -189.69,73.7 -81.26,0 -155.06,-35.4 -209.83,-93.1 -50.34,40.6 -112.16,64.7 -179.04,64.7 -80.68,0 -154.02,-35 -208.67,-91.9 -53.52,51.3 -123.07,82.4 -199.17,82.4 -97.65,0 -184.56,-51.2 -240.56,-130.7 -56.11,74.1 -139.94,121.2 -233.66,121.2 -74.15,0 -142.13,-29.5 -195.07,-78.5 -51.26,43.3 -115.09,69 -184.31,69 -168.935,0 -305.88,-152.9 -305.88,-341.4 0,-21.1 1.797,-41.7 5.066,-61.7 H 3987.87"
         style="fill:#edaa9e;fill-opacity:1;fill-rule:nonzero;stroke:none"
         id="path754" />
      <path
         d="m 5877.43,22501 c 1.66,10.1 2.57,20.6 2.57,31.2 0,95.5 -69.34,172.9 -154.87,172.9 -18.97,0 -37.13,-3.8 -53.93,-10.8 -23.46,16 -51.03,25.2 -80.53,25.2 -29.15,0 -56.4,-9 -79.68,-24.6 -26.7,24.4 -60.82,39 -98.01,39 -36.29,0 -69.64,-14 -96.04,-37.3 -26.4,23.3 -59.75,37.3 -96.05,37.3 -41.14,0 -78.5,-17.9 -106.24,-47.1 -25.48,20.5 -56.78,32.7 -90.65,32.7 -40.85,0 -77.98,-17.7 -105.65,-46.5 -27.1,26 -62.31,41.7 -100.84,41.7 -49.45,0 -93.45,-25.9 -121.8,-66.2 -28.41,37.6 -70.86,61.4 -118.31,61.4 -37.55,0 -71.96,-14.9 -98.77,-39.7 -25.96,21.9 -58.27,34.9 -93.32,34.9 -85.53,0 -154.87,-77.4 -154.87,-172.9 0,-10.6 0.91,-21.1 2.56,-31.2 h 1644.43"
         style="fill:#efcdaa;fill-opacity:1;fill-rule:nonzero;stroke:none"
         id="path756" />
      <path
         d="m 7794.8,24531 c 3.36,20.5 5.2,41.6 5.2,63.2 0,193.4 -140.41,350.1 -313.62,350.1 -38.4,0 -75.18,-7.7 -109.19,-21.9 -47.52,32.4 -103.35,51.1 -163.09,51.1 -59.02,0 -114.2,-18.3 -161.35,-49.9 -54.06,49.4 -123.15,79 -198.46,79 -73.49,0 -141.02,-28.3 -194.49,-75.5 -53.46,47.2 -120.99,75.5 -194.49,75.5 -83.31,0 -158.97,-36.3 -215.13,-95.4 -51.62,41.6 -115,66.3 -183.57,66.3 -82.72,0 -157.91,-35.8 -213.95,-94.3 -54.88,52.7 -126.19,84.5 -204.21,84.5 -100.12,0 -189.23,-52.4 -246.64,-134 -57.53,76 -143.48,124.3 -239.58,124.3 -76.02,0 -145.72,-30.2 -200.01,-80.4 -52.55,44.3 -118,70.7 -188.97,70.7 -173.21,0 -313.62,-156.7 -313.62,-350.1 0,-21.6 1.85,-42.7 5.2,-63.2 H 7794.8"
         style="fill:#82b2bc;fill-opacity:1;fill-rule:nonzero;stroke:none"
         id="path758" />
      <path
         d="m 32498.8,13337.2 c 15.7,53.9 48.8,105.4 99.1,130.4 43.5,21.6 94.5,21.3 142.8,16.4 12.9,-1.3 26.3,-3.2 36.8,-10.7 11.9,-8.6 17.9,-23.1 23.4,-36.8 36.2,-91.7 70.2,-203.7 10,-281.8 -28.3,-36.7 -72.1,-57.3 -111,-82.5 -116.5,-75.5 -196.7,-204.3 -213,-342.1 -49.1,132.8 -141.3,244.4 -224.6,359 -83.2,114.6 -161.2,240.8 -174.1,381.9 -2.4,25.9 -0.7,56 19.8,71.8 12.1,9.4 28.1,11.5 43.3,13.2 58.4,6.8 123.1,12.1 170.4,-22.8 36.7,-27 54.2,-72.3 70,-115 27.5,-74.8 50.3,-157 86.5,-227.1 10,47.7 5.9,98.3 20.6,146.1"
         style="fill:#e58774;fill-opacity:1;fill-rule:nonzero;stroke:none"
         id="path760" />
      <path
         d="m 29587,12187.6 c -13.8,54.4 -11.4,115.5 19.2,162.6 26.6,40.7 70.7,66.3 114.8,86.6 11.8,5.4 24.2,10.6 37.1,9.4 14.7,-1.3 27.2,-10.8 38.8,-19.8 77.8,-60.6 163.9,-139.9 151.6,-237.8 -5.7,-46 -33.1,-85.9 -53.8,-127.4 -62.1,-124.1 -65.8,-275.9 -10,-402.9 -109.7,89.6 -245.7,139 -375.6,195.5 -129.9,56.5 -261.1,125.8 -343.9,240.8 -15.1,21 -29,47.9 -19.3,72 5.7,14.1 18.4,24 30.6,33.3 46.9,35.4 100,72.8 158.4,66.7 45.3,-4.7 83.4,-34.7 118.7,-63.6 61.7,-50.5 123,-109.8 189.7,-151.8 -15.5,46.2 -44.7,87.7 -56.3,136.4"
         style="fill:#e58774;fill-opacity:1;fill-rule:nonzero;stroke:none"
         id="path762" />
      <path
         d="m 27923.5,10081.1 c -23.9,50.8 -33.2,111.3 -12.1,163.3 18.2,45.1 56.6,78.6 96.1,107 10.5,7.5 21.8,15 34.6,16.3 14.7,1.4 28.8,-5.4 41.9,-12.1 87.9,-44.6 187.5,-106.1 194.2,-204.4 3.2,-46.3 -16.1,-90.7 -28.5,-135.4 -37.3,-133.7 -12,-283.4 67.1,-397.4 -124.9,67 -267.8,89.5 -406.1,120.2 -138.3,30.7 -280.3,73.6 -383.5,170.7 -18.9,17.8 -37.6,41.5 -32.7,67 2.9,15 13.5,27.2 23.7,38.6 39.2,43.7 84.3,90.5 142.8,95.7 45.4,4.1 88.5,-18.2 128.6,-39.8 70.2,-37.8 141.7,-84.3 215.2,-112.7 -24.1,42.3 -60.6,77.5 -81.3,123"
         style="fill:#e58774;fill-opacity:1;fill-rule:nonzero;stroke:none"
         id="path764" />
      <path
         d="m 26907.9,7822.9 c -35.1,43.9 -58.2,100.5 -49.8,156 7.3,48.1 36.9,89.6 68.7,126.4 8.5,9.7 17.7,19.6 29.9,23.8 13.9,4.9 29.2,1.5 43.6,-2 95.8,-23 207,-59.6 236.3,-153.7 13.8,-44.3 5.4,-92 3.7,-138.3 -5.2,-138.7 54.1,-278.4 157.5,-370.9 -137,36.1 -281.2,24.9 -422.9,22.6 -141.6,-2.3 -289.7,6.5 -412.6,77 -22.5,12.9 -46.2,31.6 -47.4,57.6 -0.6,15.2 6.8,29.5 14.1,43 28,51.6 60.9,107.6 116.7,126.3 43.2,14.4 90.3,2.8 134.3,-8.9 77.1,-20.5 157.4,-49.1 235.5,-59.7 -33.2,35.6 -76.9,61.3 -107.6,100.8"
         style="fill:#e58774;fill-opacity:1;fill-rule:nonzero;stroke:none"
         id="path766" />
      <path
         d="m 35481.9,12588.4 c 35.8,43.3 86.5,77.5 142.6,80.6 48.5,2.6 95.2,-17.8 137.7,-41.5 11.3,-6.3 22.8,-13.3 29.5,-24.3 7.6,-12.7 7.4,-28.3 6.9,-43.1 -2.9,-98.5 -16.1,-214.8 -102.2,-262.8 -40.6,-22.5 -88.9,-24 -134.7,-31.8 -136.8,-23.2 -261.4,-109.9 -330.9,-230 7.4,141.5 -33.1,280.4 -64.2,418.6 -31.1,138.2 -52.8,285 -8.9,419.7 8,24.7 21.5,51.7 46.7,58.1 14.8,3.8 30.3,-0.6 44.9,-5 56.3,-16.9 117.9,-37.7 147.5,-88.4 23,-39.3 21.2,-87.8 18.7,-133.3 -4.2,-79.6 -15.8,-164.2 -10.3,-242.8 28.1,39.9 44.3,87.9 76.7,126"
         style="fill:#e58774;fill-opacity:1;fill-rule:nonzero;stroke:none"
         id="path768" />
      <path
         d="m 37651.9,10698.4 c 35.8,43.3 86.5,77.5 142.6,80.6 48.5,2.6 95.2,-17.8 137.7,-41.5 11.3,-6.3 22.8,-13.3 29.5,-24.3 7.6,-12.7 7.4,-28.3 6.9,-43.1 -2.9,-98.5 -16.1,-214.8 -102.2,-262.8 -40.6,-22.5 -88.9,-24 -134.7,-31.8 -136.8,-23.2 -261.4,-109.9 -330.9,-230 7.4,141.5 -33.1,280.4 -64.2,418.6 -31.1,138.2 -52.8,285 -8.9,419.7 8,24.7 21.5,51.7 46.7,58.1 14.8,3.8 30.3,-0.6 44.9,-5 56.3,-16.9 117.9,-37.7 147.5,-88.4 23,-39.3 21.2,-87.8 18.7,-133.3 -4.2,-79.6 -15.8,-164.2 -10.3,-242.8 28.1,39.9 44.3,87.9 76.7,126"
         style="fill:#e58774;fill-opacity:1;fill-rule:nonzero;stroke:none"
         id="path770" />
      <path
         d="m 38741.9,8098.4 c 35.8,43.3 86.5,77.5 142.6,80.6 48.5,2.6 95.2,-17.8 137.7,-41.5 11.3,-6.3 22.8,-13.3 29.5,-24.3 7.6,-12.7 7.4,-28.3 6.9,-43.1 -2.9,-98.5 -16.1,-214.8 -102.2,-262.8 -40.6,-22.5 -88.9,-24 -134.7,-31.8 -136.8,-23.2 -261.4,-109.9 -330.9,-230 7.4,141.5 -33.1,280.4 -64.2,418.6 -31.1,138.2 -52.8,285 -8.9,419.7 8,24.7 21.5,51.7 46.7,58.1 14.8,3.8 30.3,-0.6 44.9,-5 56.3,-16.9 117.9,-37.7 147.5,-88.4 23,-39.3 21.2,-87.8 18.7,-133.3 -4.2,-79.6 -15.8,-164.2 -10.3,-242.8 28.1,39.9 44.3,87.9 76.7,126"
         style="fill:#e58774;fill-opacity:1;fill-rule:nonzero;stroke:none"
         id="path772" />
      <path
         d="M 820.699,23622.8 H 618.918 v 90 h 201.781 v -90"
         style="fill:#fab687;fill-opacity:1;fill-rule:nonzero;stroke:none"
         id="path774" />
      <path
         d="m 769.262,23965.9 c -69.5,9.4 -140.024,9.9 -209.61,1.3 l -11.023,89.3 c 77.254,9.5 155.551,9.1 232.695,-1.4 l -12.062,-89.2"
         style="fill:#fab687;fill-opacity:1;fill-rule:nonzero;stroke:none"
         id="path776" />
      <path
         d="m 765.184,24344 -194.071,55.2 24.649,86.6 194.066,-55.3 -24.644,-86.5"
         style="fill:#fab687;fill-opacity:1;fill-rule:nonzero;stroke:none"
         id="path778" />
      <path
         d="m 809.68,24688.1 c -64.274,28.1 -131.985,47.8 -201.262,58.6 l 13.855,88.9 c 76.915,-12 152.09,-33.9 223.43,-65 l -36.023,-82.5"
         style="fill:#fab687;fill-opacity:1;fill-rule:nonzero;stroke:none"
         id="path780" />
      <path
         d="m 916.879,25049.5 -189.535,69.2 30.879,84.6 189.535,-69.2 -30.879,-84.6"
         style="fill:#fab687;fill-opacity:1;fill-rule:nonzero;stroke:none"
         id="path782" />
      <path
         d="m 986.285,25389.5 c -62.058,32.6 -128.16,57.2 -196.469,73 l 20.289,87.7 c 75.84,-17.5 149.227,-44.8 218.105,-81.1 l -41.925,-79.6"
         style="fill:#fab687;fill-opacity:1;fill-rule:nonzero;stroke:none"
         id="path784" />
      <path
         d="m 1164.49,25724.4 -167.377,112.7 50.267,74.7 167.38,-112.7 -50.27,-74.7"
         style="fill:#fab687;fill-opacity:1;fill-rule:nonzero;stroke:none"
         id="path786" />
      <path
         d="m 1313.47,26037.7 c -52.4,46.7 -110.67,86.4 -173.19,118.1 l 40.75,80.3 c 69.4,-35.3 134.09,-79.4 192.26,-131.1 l -59.82,-67.3"
         style="fill:#fab687;fill-opacity:1;fill-rule:nonzero;stroke:none"
         id="path788" />
      <path
         d="m 1578.02,26297.2 -112.75,167.3 74.64,50.3 112.75,-167.3 -74.64,-50.3"
         style="fill:#fab687;fill-opacity:1;fill-rule:nonzero;stroke:none"
         id="path790" />
      <path
         d="m 4050.59,23652.8 h 201.78 v 90 h -201.78 v -90"
         style="fill:#fab687;fill-opacity:1;fill-rule:nonzero;stroke:none"
         id="path792" />
      <path
         d="m 4102.03,23995.9 c 69.5,9.4 140.02,9.9 209.61,1.3 l 11.02,89.3 c -77.25,9.5 -155.55,9.1 -232.69,-1.4 l 12.06,-89.2"
         style="fill:#fab687;fill-opacity:1;fill-rule:nonzero;stroke:none"
         id="path794" />
      <path
         d="m 4106.11,24374 194.06,55.2 -24.64,86.6 -194.07,-55.3 24.65,-86.5"
         style="fill:#fab687;fill-opacity:1;fill-rule:nonzero;stroke:none"
         id="path796" />
      <path
         d="m 4061.61,24718.1 c 64.27,28.1 131.99,47.8 201.26,58.6 l -13.85,88.9 c -76.92,-12 -152.1,-33.9 -223.43,-65 l 36.02,-82.5"
         style="fill:#fab687;fill-opacity:1;fill-rule:nonzero;stroke:none"
         id="path798" />
      <path
         d="m 3954.41,25079.5 189.54,69.2 -30.88,84.6 -189.54,-69.2 30.88,-84.6"
         style="fill:#fab687;fill-opacity:1;fill-rule:nonzero;stroke:none"
         id="path800" />
      <path
         d="m 3885,25419.5 c 62.06,32.6 128.16,57.2 196.47,73 l -20.29,87.7 c -75.83,-17.5 -149.22,-44.8 -218.11,-81.1 l 41.93,-79.6"
         style="fill:#fab687;fill-opacity:1;fill-rule:nonzero;stroke:none"
         id="path802" />
      <path
         d="m 3706.8,25754.4 167.38,112.7 -50.27,74.7 -167.38,-112.7 50.27,-74.7"
         style="fill:#fab687;fill-opacity:1;fill-rule:nonzero;stroke:none"
         id="path804" />
      <path
         d="m 3557.82,26067.7 c 52.4,46.7 110.67,86.4 173.19,118.1 l -40.75,80.3 c -69.4,-35.3 -134.1,-79.4 -192.26,-131.1 l 59.82,-67.3"
         style="fill:#fab687;fill-opacity:1;fill-rule:nonzero;stroke:none"
         id="path806" />
      <path
         d="m 3293.27,26327.2 112.75,167.3 -74.64,50.3 -112.75,-167.3 74.64,-50.3"
         style="fill:#fab687;fill-opacity:1;fill-rule:nonzero;stroke:none"
         id="path808" />
      <path
         d="m 4352.17,22771.9 c 27.68,-23.7 74,4.5 80.82,40.3 6.83,35.8 -11.49,71.1 -29.12,102.9 -17.63,31.9 -35.8,67.3 -28.67,103 6,30.1 28.69,53.6 42.34,81 26.8,53.8 17.01,117.7 10.7,177.5 -6.32,59.8 -6.16,127 34.3,171.5 13.29,14.6 30.39,25.9 40.87,42.7 18.9,30.1 11.84,69.4 20.93,103.8 19.53,74 108.02,111.8 132.32,184.3 12.55,37.4 7.19,82.1 32.31,112.6 23.34,28.3 63.86,33.2 99.98,39.7 73.73,13.1 144.79,41.1 207.71,81.7 42.62,27.5 91.91,62.5 139.21,44.1 28.3,-11 46.8,-38.8 73.84,-52.7 38.72,-19.8 96.96,-13.9 113.92,-54 7.43,-17.5 3.05,-38.4 10.69,-55.9 11.25,-25.7 42.63,-33.9 68.06,-45.8 42.15,-19.7 75.47,-57.5 89.7,-101.8 14.89,-46.4 9.8,-98.7 32.69,-141.7 23.32,-43.8 72.21,-70.7 91.76,-116.3 22.12,-51.6 0.81,-113.3 19.74,-166.2 14.75,-41.2 52.04,-71.4 66.29,-112.8 30.37,-88.2 -54.13,-181.3 -36.58,-272.9 3.84,-20 12.48,-38.9 16.83,-58.9 9.22,-42.3 -1.32,-86.7 5.84,-129.4 2.88,-17.2 10.55,-36 26.93,-41.9 16.38,-6 38.11,13 28.48,27.5"
         style="fill:none;stroke:#5b9e79;stroke-width:30;stroke-linecap:butt;stroke-linejoin:miter;stroke-miterlimit:10;stroke-dasharray:none;stroke-opacity:1"
         id="path810" />
    </g>
  </g>
</svg>
